<svg xmlns="http://www.w3.org/2000/svg" viewBox="0 0 48 48"><path fill="#d8a353" d="M39 48h-6v-6h6c1.659 0 3-1.341 3-3V12H6v27c0 1.659 1.341 3 3 3h6v6H9c-4.971 0-9-4.032-9-9V9a9 9 0 0 1 9-9h30a9 9 0 0 1 9 9v30c0 4.968-4.029 9-9 9zM9 3a3 3 0 1 0 0 6 3 3 0 1 0 0-6zm12.879 21.876c.585-.585 1.353-.879 2.121-.879s1.536.294 2.121.879l6 6a3.014 3.014 0 0 1 .651 3.273A3.002 3.002 0 0 1 30 36h-3v9c0 1.659-1.341 3-3 3a3 3 0 0 1-3-3v-9h-3a3.002 3.002 0 0 1-2.121-5.124l6-6z" class="color000000 svgShape"/></svg>